<svg xmlns="http://www.w3.org/2000/svg" xmlns:xlink="http://www.w3.org/1999/xlink" width="480.03" height="90.006" viewBox="-47.863 -98.547 480.03 90.006"><path fill="#FFF" d="M32.142-9.459c-33.098 0-62.566-16.469-78.939-44.084C-30.422-81.158-.954-97.627 32.142-97.627c33.097 0 62.564 16.469 78.938 44.084C94.709-25.929 65.24-9.459 32.142-9.459z"/><path d="M32.142-96.709c16.265 0 32.144 4.157 45.923 12.022 13.175 7.52 24.2 18.274 31.945 31.144-7.744 12.87-18.771 23.624-31.945 31.145-13.778 7.864-29.658 12.021-45.923 12.021S-.003-14.534-13.781-22.398c-13.175-7.52-24.201-18.274-31.946-31.145 7.746-12.87 18.771-23.624 31.946-31.144 13.779-7.866 29.659-12.022 45.923-12.022m0-1.838c-34.188 0-64.034 17.702-80.005 45.003C-31.892-26.241-2.045-8.541 32.142-8.541s64.034-17.7 80.005-45.003c-15.97-27.301-45.818-45.003-80.005-45.003z"/><ellipse fill="#FFB6B6" stroke="#000" stroke-width="1.837" stroke-linecap="round" stroke-linejoin="round" stroke-miterlimit="10" cx="32.142" cy="-54.212" rx="30.019" ry="29.686"/><ellipse stroke="#000" stroke-width="1.837" stroke-linecap="round" stroke-linejoin="round" stroke-miterlimit="10" cx="32.142" cy="-54.211" rx="13.854" ry="13.701"/><g><path fill="#FFF" d="M112.147-53.544c16.066 26.931 46.099 45.003 80.005 45.003s63.535-18.072 79.601-45.003H112.147z"/><defs><path id="a" d="M112.552-53.544c16.066 26.931 45.693 45.003 79.6 45.003s63.535-18.072 79.601-45.003H112.552z"/></defs><clipPath id="b"><use xlink:href="#a" overflow="visible"/></clipPath><ellipse clip-path="url(#b)" fill="#FFB6B6" stroke="#000" stroke-width="1.837" stroke-linecap="round" stroke-linejoin="round" stroke-miterlimit="10" cx="192.152" cy="-54.212" rx="30.02" ry="29.686"/><ellipse clip-path="url(#b)" stroke="#000" stroke-width="1.837" stroke-linecap="round" stroke-linejoin="round" stroke-miterlimit="10" cx="192.152" cy="-54.211" rx="13.855" ry="13.701"/><g><path d="M268.85-51.707c-16.576 25.574-45.661 41.328-76.698 41.328-31.036 0-60.121-15.754-76.698-41.328H268.85m3.307-1.837h.005-.005zm0 0h-160.01c16.066 26.931 46.099 45.003 80.005 45.003s63.94-18.072 80.005-45.003z"/></g></g><path d="M428.662-51.408c-7.726 11.829-19.023 21.765-31.333 28.874-13.772 7.953-29.531 12.156-45.572 12.156s-31.8-4.203-45.571-12.156c-12.414-7.169-22.979-17.211-30.723-29.172h.007a46.782 46.782 0 0 1-1.167-1.837h-2.146c16.066 26.931 45.693 45.003 79.6 45.003s64.345-18.072 80.41-45.003h-2.064c-.457.72-.94 1.431-1.441 2.135z"/></svg>